<svg width="320" height="320" viewBox="0 0 320 320" fill="none" xmlns="http://www.w3.org/2000/svg" role="img" aria-label="Samuel Sakamoto">
  <rect width="320" height="320" rx="56" fill="#0B1F3A"/>
  <path d="M160 56C180 56 196 72 196 92C196 108 186 122 170 128V144H150V128C134 122 124 108 124 92C124 72 140 56 160 56Z" fill="#C9A84C"/>
  <path d="M96 176H224" stroke="#C9A84C" stroke-width="10" stroke-linecap="round"/>
  <path d="M120 176L92 224" stroke="#C9A84C" stroke-width="10" stroke-linecap="round"/>
  <path d="M200 176L228 224" stroke="#C9A84C" stroke-width="10" stroke-linecap="round"/>
  <circle cx="92" cy="236" r="18" fill="#C9A84C"/>
  <circle cx="228" cy="236" r="18" fill="#C9A84C"/>
  <path d="M140 212C140 238 180 238 180 212" stroke="#C9A84C" stroke-width="10" stroke-linecap="round"/>
  <text x="160" y="230" text-anchor="middle" font-family="Georgia, serif" font-size="72" font-weight="700" fill="white">SS</text>
</svg>
