<svg width="720" height="180" viewBox="0 0 720 180" fill="none" xmlns="http://www.w3.org/2000/svg" role="img" aria-label="Samuel Sakamoto Sociedade de Advogados">
  <rect width="720" height="180" rx="24" fill="white"/>
  <g transform="translate(28 24)">
    <rect x="0" y="0" width="132" height="132" rx="20" fill="#0B1F3A"/>
    <path d="M66 26C74 26 80 32 80 40C80 46 76 52 70 54V62H62V54C56 52 52 46 52 40C52 32 58 26 66 26Z" fill="#C9A84C"/>
    <path d="M32 80H100" stroke="#C9A84C" stroke-width="6" stroke-linecap="round"/>
    <path d="M44 80L30 104" stroke="#C9A84C" stroke-width="6" stroke-linecap="round"/>
    <path d="M88 80L102 104" stroke="#C9A84C" stroke-width="6" stroke-linecap="round"/>
    <circle cx="30" cy="110" r="10" fill="#C9A84C"/>
    <circle cx="102" cy="110" r="10" fill="#C9A84C"/>
    <path d="M56 96C56 112 76 112 76 96" stroke="#C9A84C" stroke-width="6" stroke-linecap="round"/>
    <text x="66" y="120" text-anchor="middle" font-family="Georgia, serif" font-size="44" font-weight="700" fill="white">SS</text>
  </g>
  <g transform="translate(190 48)">
    <text x="0" y="40" font-family="Georgia, serif" font-size="44" font-weight="700" fill="#0B1F3A">Samuel Sakamoto</text>
    <text x="0" y="78" font-family="Inter, system-ui, sans-serif" font-size="18" letter-spacing="2" text-transform="uppercase" fill="#3B4C66">Sociedade de Advogados</text>
    <rect x="0" y="98" width="220" height="4" rx="2" fill="#C9A84C"/>
  </g>
</svg>
